<svg version="1.1" viewBox="0.0 0.0 1000.0 1000.0" fill="none" stroke="none" stroke-linecap="square" stroke-miterlimit="10" xmlns:xlink="http://www.w3.org/1999/xlink" xmlns="http://www.w3.org/2000/svg"><clipPath id="p.0"><path d="m0 0l1000.0 0l0 1000.0l-1000.0 0l0 -1000.0z" clip-rule="nonzero"/></clipPath><g clip-path="url(#p.0)"><path fill="#000000" fill-opacity="0.0" d="m0 0l1000.0 0l0 1000.0l-1000.0 0z" fill-rule="evenodd"/><path fill="#222222" fill-opacity="0.4643" d="m68.0 500.0l0 0c0 -238.587 193.413 -432.0 432.0 -432.0l0 0c114.57355 0 224.4544 45.514153 305.47015 126.52988c81.015686 81.01572 126.52985 190.8966 126.52985 305.47012l0 0c0 238.58704 -193.41296 432.0 -432.0 432.0l0 0c-238.587 0 -432.0 -193.41296 -432.0 -432.0z" fill-rule="evenodd"/><defs><linearGradient id="p.1" gradientUnits="userSpaceOnUse" gradientTransform="matrix(18.955873392990846 -0.002016582107097592 0.002016582107097592 18.955873392990846 0.0 0.0)" spreadMethod="pad" x1="18.753685767840885" y1="32.1602470146656" x2="32.15768330052474" y2="18.756591310533857"><stop offset="0.0" stop-color="#e833bb"/><stop offset="1.0" stop-color="#e83633"/></linearGradient></defs><path fill="url(#p.1)" d="m228.50641 482.56064l-0.027023315 -254.08125l254.10829 254.05421z" fill-rule="evenodd"/><defs><linearGradient id="p.2" gradientUnits="userSpaceOnUse" gradientTransform="matrix(0.0020165818057736257 18.95587377468601 -18.95587377468601 0.0020165818057736257 0.0 0.0)" spreadMethod="pad" x1="5.355638756636171" y1="-33.99770027906915" x2="18.759442388690804" y2="-20.5938501323707"><stop offset="0.0" stop-color="#e8bb33"/><stop offset="1.0" stop-color="#8ee833"/></linearGradient></defs><path fill="url(#p.2)" d="m517.43933 228.50641l254.0813 -0.027023315l-254.05426 254.10829z" fill-rule="evenodd"/><defs><linearGradient id="p.3" gradientUnits="userSpaceOnUse" gradientTransform="matrix(-18.955874157270085 0.002016581846441537 -0.002016581846441537 -18.955874157270085 0.0 0.0)" spreadMethod="pad" x1="-33.99455390495639" y1="-47.40711391843876" x2="-47.39845570444886" y2="-34.003361398497844"><stop offset="0.0" stop-color="#33e860"/><stop offset="1.0" stop-color="#33e8e8"/></linearGradient></defs><path fill="url(#p.3)" d="m771.4936 517.43933l0.027038574 254.0813l-254.10828 -254.05426z" fill-rule="evenodd"/><defs><linearGradient id="p.4" gradientUnits="userSpaceOnUse" gradientTransform="matrix(-0.00201658218841368 -18.95587415753131 18.95587415753131 -0.00201658218841368 0.0 0.0)" spreadMethod="pad" x1="-20.596413430481178" y1="18.75093091190274" x2="-34.00011619038684" y2="5.346979352744495"><stop offset="0.0" stop-color="#3360e8"/><stop offset="1.0" stop-color="#8d33e8"/></linearGradient></defs><path fill="url(#p.4)" d="m482.56064 771.4936l-254.08125 0.027038574l254.05421 -254.10828z" fill-rule="evenodd"/><defs><linearGradient id="p.5" gradientUnits="userSpaceOnUse" gradientTransform="matrix(13.4040256948949 13.404025694552956 -13.404025694552956 13.4040256948949 0.0 0.0)" spreadMethod="pad" x1="22.978613791407156" y1="-0.9195882433974903" x2="36.382639486302054" y2="-0.9195882433974903"><stop offset="0.0" stop-color="#e83633"/><stop offset="1.0" stop-color="#e8bb33"/></linearGradient></defs><path fill="url(#p.5)" d="m320.33212 295.67975l179.66788 -179.6679l0 359.33575z" fill-rule="evenodd"/><defs><linearGradient id="p.6" gradientUnits="userSpaceOnUse" gradientTransform="matrix(-13.404050574387385 13.404050574387414 -13.404050574387414 -13.404050574387385 0.0 0.0)" spreadMethod="pad" x1="-14.323585391185944" y1="-51.62579384493648" x2="-14.323634068489504" y2="-38.22174327063746"><stop offset="0.0" stop-color="#8ee833"/><stop offset="1.0" stop-color="#33e860"/></linearGradient></defs><path fill="url(#p.6)" d="m704.32025 320.33212l179.66791 179.66788l-359.33582 0z" fill-rule="evenodd"/><defs><linearGradient id="p.7" gradientUnits="userSpaceOnUse" gradientTransform="matrix(-13.404072208859665 -13.40407220885966 13.40407220885966 -13.404072208859665 0.0 0.0)" spreadMethod="pad" x1="-38.22158638887141" y1="-14.323563354314956" x2="-51.62565859737753" y2="-14.323660708764942"><stop offset="0.0" stop-color="#33e8e8"/><stop offset="1.0" stop-color="#3360e8"/></linearGradient></defs><path fill="url(#p.7)" d="m679.6679 704.32025l-179.66791 179.66791l0 -359.33582z" fill-rule="evenodd"/><defs><linearGradient id="p.8" gradientUnits="userSpaceOnUse" gradientTransform="matrix(13.404099251705572 -13.404099252047521 13.404099252047521 13.404099251705572 0.0 0.0)" spreadMethod="pad" x1="-0.9195831970089567" y1="36.38258694380479" x2="-0.9194360839146687" y2="22.978487692564567"><stop offset="0.0" stop-color="#8d33e8"/><stop offset="1.0" stop-color="#e833bb"/></linearGradient></defs><path fill="url(#p.8)" d="m295.67975 679.6679l-179.6679 -179.66791l359.33575 0z" fill-rule="evenodd"/></g></svg>